<?xml version="1.0" encoding="UTF-8"?>
<!-- Uploaded to: SVG Repo, www.svgrepo.com, Generator: SVG Repo Mixer Tools -->
<svg width="800px" height="800px" viewBox="0 0 512 512" version="1.1" xmlns="http://www.w3.org/2000/svg" xmlns:xlink="http://www.w3.org/1999/xlink">
    <title>about-filled</title>
    <g id="Page-1" stroke="none" stroke-width="1" fill="none" fill-rule="evenodd">
        <g id="drop" fill="#000000" transform="translate(42.666667, 42.666667)">
            <path d="M213.333333,3.55271368e-14 C331.154987,3.55271368e-14 426.666667,95.51168 426.666667,213.333333 C426.666667,331.153707 331.154987,426.666667 213.333333,426.666667 C95.51296,426.666667 3.55271368e-14,331.153707 3.55271368e-14,213.333333 C3.55271368e-14,95.51168 95.51296,3.55271368e-14 213.333333,3.55271368e-14 Z M234.713387,192 L192.04672,192 L192.04672,320 L234.713387,320 L234.713387,192 Z M213.55008,101.333333 C197.99616,101.333333 186.713387,112.5536 186.713387,127.704107 C186.713387,143.46752 197.698773,154.666667 213.55008,154.666667 C228.785067,154.666667 240.04672,143.46752 240.04672,128 C240.04672,112.5536 228.785067,101.333333 213.55008,101.333333 Z" id="Shape">

</path>
        </g>
    </g>
</svg>
<svg xmlns="http://www.w3.org/2000/svg" viewBox="0 0 512 512"><path d="M288 32c0-17.7-14.3-32-32-32s-32 14.3-32 32V274.7l-73.4-73.4c-12.5-12.5-32.8-12.5-45.3 0s-12.5 32.8 0 45.3l128 128c12.5 12.5 32.8 12.5 45.3 0l128-128c12.5-12.5 12.5-32.8 0-45.3s-32.8-12.5-45.3 0L288 274.7V32zM64 352c-35.3 0-64 28.7-64 64v32c0 35.3 28.7 64 64 64H448c35.3 0 64-28.7 64-64V416c0-35.3-28.7-64-64-64H346.5l-45.3 45.3c-25 25-65.5 25-90.5 0L165.5 352H64zM432 456c-13.3 0-24-10.7-24-24s10.7-24 24-24s24 10.7 24 24s-10.7 24-24 24z"/></svg>